<svg width="87" height="51" viewBox="0 0 87 51" fill="none" xmlns="http://www.w3.org/2000/svg">
<path d="M0 0H77C82.5228 0 87 4.47715 87 10V41C87 46.5228 82.5228 51 77 51H0V0Z" fill="#D9D9D9"/>
<path d="M39.0085 16.5455V34H35.3182V20.0483H35.2159L31.2188 22.554V19.2812L35.5398 16.5455H39.0085ZM43.157 34V31.3409L49.37 25.5881C49.8984 25.0767 50.3416 24.6165 50.6996 24.2074C51.0632 23.7983 51.3388 23.3977 51.5263 23.0057C51.7138 22.608 51.8075 22.179 51.8075 21.7188C51.8075 21.2074 51.6911 20.767 51.4581 20.3977C51.2251 20.0227 50.907 19.7358 50.5036 19.5369C50.1001 19.3324 49.6428 19.2301 49.1314 19.2301C48.5973 19.2301 48.1314 19.3381 47.7337 19.554C47.3359 19.7699 47.0291 20.0795 46.8132 20.483C46.5973 20.8864 46.4893 21.3665 46.4893 21.9233H42.9865C42.9865 20.7812 43.245 19.7898 43.7621 18.9489C44.2791 18.108 45.0036 17.4574 45.9354 16.9972C46.8672 16.5369 47.9411 16.3068 49.157 16.3068C50.407 16.3068 51.495 16.5284 52.4212 16.9716C53.353 17.4091 54.0774 18.017 54.5945 18.7955C55.1115 19.5739 55.37 20.4659 55.37 21.4716C55.37 22.1307 55.2393 22.7812 54.978 23.4233C54.7223 24.0653 54.2649 24.7784 53.6058 25.5625C52.9467 26.3409 52.0178 27.2756 50.8189 28.3665L48.2706 30.8636V30.983H55.6001V34H43.157Z" fill="black"/>
</svg>
