<svg width="130" height="67" viewBox="0 0 130 67" fill="none" xmlns="http://www.w3.org/2000/svg">
<path d="M56.5583 10.1299H120C125.523 10.1299 130 14.607 130 20.1299V43.1818C130 48.7047 125.523 53.1818 120 53.1818H56.5583V10.1299Z" fill="#D9D9D9"/>
<circle cx="33.3442" cy="33.3442" r="30.8442" fill="#D9D9D9" stroke="#64A939" stroke-width="5"/>
<path d="M31.4421 16.8281C32.0408 14.9855 34.6477 14.9855 35.2464 16.8281L37.9176 25.0494C38.1854 25.8735 38.9533 26.4314 39.8197 26.4314H48.4641C50.4016 26.4314 51.2071 28.9106 49.6397 30.0494L42.6462 35.1305C41.9453 35.6398 41.652 36.5425 41.9197 37.3666L44.591 45.5879C45.1897 47.4305 43.0807 48.9627 41.5133 47.8239L34.5198 42.7429C33.8188 42.2336 32.8697 42.2336 32.1687 42.7429L25.1752 47.8239C23.6078 48.9627 21.4988 47.4305 22.0975 45.5879L24.7688 37.3666C25.0365 36.5425 24.7432 35.6398 24.0423 35.1305L17.0488 30.0494C15.4814 28.9106 16.2869 26.4314 18.2244 26.4314H26.8688C27.7352 26.4314 28.5031 25.8735 28.7709 25.0494L31.4421 16.8281Z" fill="#64A939"/>
</svg>
